<svg class="icon" viewBox="0 0 1024 1024" version="1.1" xmlns="http://www.w3.org/2000/svg" width="64" height="64"><path d="M584.078222 100.636444l-1.479111 3.754667c-12.344889 27.761778-41.528889 47.104-74.24 47.104a81.635556 81.635556 0 0 1-72.704-44.373333l-3.128889-6.826667a39.822222 39.822222 0 0 0-47.502222-23.608889 464.725333 464.725333 0 0 0-203.946667 117.930667 39.822222 39.822222 0 0 0-3.413333 52.792889 81.92 81.92 0 0 1-75.946667 131.413333 39.822222 39.822222 0 0 0-44.145777 29.411556 466.488889 466.488889 0 0 0-15.018667 117.76c0 40.163556 5.12 79.644444 15.018667 117.76a39.822222 39.822222 0 0 0 38.115555 29.752889l5.973333-0.398223a81.92 81.92 0 0 1 75.946667 131.413334 39.822222 39.822222 0 0 0 3.413333 52.906666 464.497778 464.497778 0 0 0 204.003556 117.76 39.822222 39.822222 0 0 0 44.714667-18.090666l2.673777-5.347556a81.92 81.92 0 0 1 148.650667-6.883555l3.128889 6.826666a39.822222 39.822222 0 0 0 47.502222 23.608889 464.668444 464.668444 0 0 0 203.946667-117.873778 39.822222 39.822222 0 0 0 3.413333-52.792889 81.92 81.92 0 0 1 75.889778-131.413333 39.822222 39.822222 0 0 0 44.202667-29.411555 466.488889 466.488889 0 0 0 15.018666-117.76c0-40.163556-5.12-79.644444-15.018666-117.76a39.822222 39.822222 0 0 0-38.115556-29.752889l-5.973333 0.398222A81.92 81.92 0 0 1 839.111111 247.466667a39.822222 39.822222 0 0 0-3.413333-52.906667 465.351111 465.351111 0 0 0-203.946667-117.873778 39.822222 39.822222 0 0 0-47.616 23.950222zM376.604444 162.929778l3.015112 4.266666a161.28 161.28 0 0 0 128.682666 63.943112l11.320889-0.398223a161.450667 161.450667 0 0 0 113.322667-58.368l7.111111-9.386666 4.778667 1.706666a385.706667 385.706667 0 0 1 108.088888 62.520889l3.868445 3.299556-3.128889 7.054222a161.336889 161.336889 0 0 0 10.012444 141.027556l5.802667 9.329777a161.507556 161.507556 0 0 0 113.834667 70.144l5.12 0.455111 1.536 8.248889c2.958222 19.456 4.494222 39.253333 4.494222 59.221334l-0.512 19.911111a387.811556 387.811556 0 0 1-3.982222 39.367111l-1.536 8.248889-5.006222 0.455111c-49.095111 6.144-93.866667 34.702222-119.751112 79.473778l-5.461333 10.24a161.507556 161.507556 0 0 0-4.551111 130.730666l3.072 7.054223-3.868444 3.356444a385.137778 385.137778 0 0 1-108.088889 62.520889l-4.835556 1.706667-2.958222-4.209778a161.28 161.28 0 0 0-128.682667-63.943111l-10.979555 0.341333a161.507556 161.507556 0 0 0-117.703111 63.488l-3.072 4.266667-4.835556-1.706667a384.910222 384.910222 0 0 1-108.088889-62.464l-3.868444-3.413333 3.128889-6.940445a161.336889 161.336889 0 0 0-9.955556-141.027555l-5.802667-9.329778a161.507556 161.507556 0 0 0-113.834666-70.200889l-5.176889-0.512-1.479111-8.135111a389.290667 389.290667 0 0 1-4.494223-59.278222l0.512-19.911111c0.682667-13.198222 1.991111-26.339556 3.982223-39.310223l1.479111-8.248889 5.12-0.455111a161.393778 161.393778 0 0 0 119.694222-79.473777l5.461333-10.296889a161.507556 161.507556 0 0 0 4.551111-130.673778l-3.128888-7.111111 3.925333-3.299556a385.137778 385.137778 0 0 1 108.088889-62.577778l4.778666-1.706666z"></path><path d="M518.371556 329.955556a200.248889 200.248889 0 1 1 0 400.497777 200.248889 200.248889 0 0 1 0-400.497777z m0 79.644444a120.604444 120.604444 0 1 0 0 241.208889 120.604444 120.604444 0 0 0 0-241.208889z"></path></svg>
